<svg width="148" height="19" viewBox="0 0 148 19" fill="none" xmlns="http://www.w3.org/2000/svg">
<path d="M4.07813 0.25H6.86458V19H4.07813V3.24479L0.5625 5.38021V2.35938L4.07813 0.25Z" fill="#F5F5F5"/>
<path d="M26.3145 19H23.2155L19.9342 12.2552H14.5436V19H11.8092V0.25H19.9863C20.6634 0.25 21.3145 0.354167 21.9395 0.562501C22.9811 0.927083 23.9447 1.57813 24.6217 2.46354C25.5332 3.50521 26.028 4.88542 26.054 6.26563C26.0801 7.59375 25.5592 8.92188 24.7259 9.96354C24.2051 10.6406 23.502 11.2135 22.7207 11.6042L26.3145 19ZM14.5436 2.82813V9.67708H19.9863C20.8717 9.67708 21.8874 9.18229 22.5384 8.375C23.0072 7.77604 23.2936 7.02083 23.2676 6.26563C23.2415 5.40625 22.929 4.54688 22.3561 3.94792C21.7572 3.29688 20.8457 2.82813 19.9863 2.82813H14.5436Z" fill="#F5F5F5"/>
<path d="M41.6058 2.82813H32.4391V8.32292H40.0433V10.901H32.4391V16.4219H41.6058V19H29.7048V0.25H41.6058V2.82813Z" fill="#F5F5F5"/>
<path d="M48.2513 0.25V16.4219H56.7409V19H45.5169V0.25H48.2513Z" fill="#F5F5F5"/>
<path d="M70.932 19L69.8382 15.6667H61.557L60.4632 19H57.6507L63.7445 0.25H67.6507L73.7445 19H70.932ZM62.3903 13.1146H69.0049L65.6715 3.01042L62.3903 13.1146Z" fill="#F5F5F5"/>
<path d="M84.3206 9.52083L90.8571 19H87.5238L82.654 11.9167L77.7581 19H74.3988L80.9613 9.52083L74.5811 0.25H77.9144L82.654 7.125L87.3675 0.25H90.7008L84.3206 9.52083Z" fill="#F5F5F5"/>
<path d="M93.2839 16.1094H96.1745V19H93.2839V16.1094Z" fill="#F5F5F5"/>
<path d="M103.046 0.25L112.291 14.1823V0.25H115.051V19H112.291L103.046 5.06771V19H100.286V0.25H103.046Z" fill="#F5F5F5"/>
<path d="M130.595 2.82813H121.428V8.32292H129.033V10.901H121.428V16.4219H130.595V19H118.694V0.25H130.595V2.82813Z" fill="#F5F5F5"/>
<path d="M147.866 0.25V2.82813H141.642V19H138.907V2.82813H132.683V0.25H147.866Z" fill="#F5F5F5"/>
</svg>
