<svg width="81" height="42" viewBox="0 0 81 42" fill="none" xmlns="http://www.w3.org/2000/svg">
<mask id="path-1-outside-1_2021_2" maskUnits="userSpaceOnUse" x="0.511719" y="0.801392" width="81" height="41" fill="black">
<rect fill="white" x="0.511719" y="0.801392" width="81" height="41"/>
<path d="M4.83924 37.5221C4.70806 37.5459 4.61713 37.5116 4.56647 37.4192C4.48301 37.3327 4.49497 37.212 4.60234 37.0569C5.3749 35.5277 6.40545 33.6466 7.69398 31.4139C8.94972 29.1871 10.3829 26.9111 11.9934 24.586C11.2692 23.3962 10.791 22.1618 10.5588 20.8827C10.3087 19.5052 10.3805 18.4081 10.7742 17.5913C10.9025 17.3647 11.2156 17.0368 11.7136 16.6076C12.2116 16.1784 12.6858 15.8044 13.1361 15.4855C13.5595 15.2053 13.886 15.0444 14.1156 15.0027C14.3124 14.967 14.3526 15.0952 14.2362 15.3874C13.8663 16.3354 13.8183 17.5637 14.0922 19.0724C14.2113 19.7283 14.3826 20.3917 14.606 21.0626C15.9511 19.3277 17.3557 17.7345 18.8199 16.2829C20.2842 14.8313 21.7603 13.6317 23.2483 12.684C24.7303 11.7034 26.1988 11.115 27.6537 10.9186C27.7193 10.9067 27.7417 10.9365 27.7208 11.008C27.7327 11.0736 27.6731 11.1183 27.5419 11.1421C26.3612 11.3565 24.9612 12.1358 23.342 13.48C21.7227 14.8242 20.0557 16.4651 18.3409 18.4026C17.813 19.0405 17.2717 19.6978 16.717 20.3744C16.1951 21.0451 15.6568 21.7188 15.1021 22.3954C15.5788 23.5285 16.1286 24.5975 16.7515 25.6024C17.4072 26.6013 18.0599 27.3975 18.7097 27.991C19.1479 28.3518 19.5876 28.6277 20.0288 28.8186C20.5028 29.0036 21.0022 29.0484 21.5269 28.9532C22.1501 28.84 22.5735 28.5599 22.7972 28.1127C22.8509 28.0352 22.9165 28.0233 22.994 28.077C23.0655 28.0979 23.0745 28.1471 23.0208 28.2246C22.8508 28.5942 22.5838 28.8968 22.22 29.1322C21.8891 29.3617 21.5432 29.5092 21.1824 29.5747C19.9033 29.8069 18.7242 29.75 17.645 29.4039C16.5926 29.019 15.6477 28.4792 14.8101 27.7843C13.9993 27.0506 13.3063 26.3126 12.7311 25.57C11.049 27.8743 9.56516 30.0578 8.27966 32.1206C6.96731 34.2222 6.02329 35.8334 5.4476 36.9543C5.30441 37.2852 5.10162 37.4745 4.83924 37.5221Z"/>
<path d="M27.7649 28.9386C26.4858 29.1708 25.4617 29.0349 24.6926 28.5308C23.9504 27.988 23.487 27.2083 23.3024 26.1916C23.1892 25.5684 23.1611 24.9468 23.2179 24.3267C23.2747 23.7065 23.3598 23.149 23.4732 22.6542C23.2853 22.9254 23.0944 23.1803 22.9006 23.4187C22.7336 23.6185 22.5934 23.7794 22.4801 23.9016C22.3667 24.0238 22.2609 24.0939 22.1625 24.1117C22.0313 24.1356 21.9508 24.0655 21.9211 23.9015C21.8794 23.6719 21.9957 23.3798 22.2701 23.025C23.2453 21.8655 23.9954 20.8654 24.5203 20.0248C25.0393 19.1514 25.603 18.3376 26.2114 17.5834C27.2343 16.3136 28.381 15.2585 29.6513 14.418C30.9216 13.5776 32.2454 13.0323 33.6229 12.7822C35.066 12.5202 36.26 12.6591 37.205 13.199C38.15 13.7389 38.7445 14.6811 38.9887 16.0258C39.1256 16.7802 39.0539 17.691 38.7733 18.7583C38.5256 19.8196 38.0215 20.9613 37.2609 22.1835C36.9448 22.6814 36.5794 23.1881 36.1649 23.7038C35.7444 24.1867 35.3716 24.5593 35.0465 24.8215C36.6238 24.3658 38.0313 23.5343 39.2689 22.3271C40.5005 21.0872 41.5875 19.8904 42.5299 18.7368C42.6761 18.6087 42.7819 18.5386 42.8475 18.5267C43.0115 18.4969 43.1084 18.564 43.1381 18.728C43.162 18.8592 43.1068 19.0217 42.9726 19.2155C41.8064 20.8162 40.4868 22.2246 39.0137 23.4406C37.5733 24.6507 35.8663 25.418 33.8925 25.7425C32.8577 26.5741 31.8156 27.2715 30.766 27.8347C29.7492 28.392 28.7488 28.7599 27.7649 28.9386ZM29.7286 27.1592C30.1878 27.0758 30.6648 26.9045 31.1598 26.6452C31.6548 26.3859 32.1408 26.0775 32.618 25.7198C32.4212 25.7556 32.2065 25.6929 31.974 25.5319C31.7743 25.3648 31.6447 25.1174 31.5851 24.7894C31.466 24.1334 31.5899 23.4164 31.9568 22.6384C32.3237 21.8603 32.8233 21.1598 33.4555 20.5368C34.0877 19.9139 34.7482 19.5399 35.437 19.4148C35.8305 19.3434 36.2121 19.3927 36.5818 19.5627C36.9783 19.694 37.2257 19.937 37.324 20.2918C37.7684 19.5675 38.0235 18.8266 38.0893 18.0694C38.1878 17.3062 38.1806 16.613 38.0674 15.9898C37.9126 15.1371 37.5177 14.5482 36.8828 14.223C36.2746 13.8592 35.5114 13.7606 34.5931 13.9273C33.7076 14.0881 32.7802 14.5783 31.8111 15.3979C30.8747 16.2116 30.0203 17.1968 29.2478 18.3534C28.5081 19.504 27.9309 20.7099 27.5162 21.9709C27.1342 23.226 27.0385 24.3783 27.2291 25.4278C27.4851 26.8381 28.3183 27.4152 29.7286 27.1592Z"/>
<path d="M38.5172 31.4075C38.386 31.4313 38.2951 31.397 38.2444 31.3046C38.1609 31.2181 38.1729 31.0973 38.2803 30.9423C39.0528 29.413 40.0834 27.532 41.3719 25.2993C42.6276 23.0724 44.0608 20.7965 45.6713 18.4714C44.9471 17.2816 44.4689 16.0472 44.2367 14.7681C43.9866 13.3906 44.0584 12.2935 44.4522 11.4766C44.5804 11.2501 44.8936 10.9222 45.3916 10.493C45.8896 10.0638 46.3637 9.68976 46.814 9.37086C47.2374 9.09071 47.5639 8.92979 47.7935 8.88811C47.9903 8.85238 48.0305 8.98059 47.9142 9.27274C47.5442 10.2207 47.4962 11.4491 47.7701 12.9577C47.8892 13.6137 48.0605 14.2771 48.2839 14.948C49.629 13.2131 51.0336 11.6199 52.4979 10.1683C53.9621 8.71672 55.4382 7.51706 56.9262 6.56934C58.4082 5.58882 59.8767 5.00035 61.3317 4.80394C61.3973 4.79203 61.4196 4.82185 61.3987 4.8934C61.4106 4.95899 61.351 5.0037 61.2198 5.02752C60.0391 5.24189 58.6391 6.02118 57.0199 7.3654C55.4007 8.70962 53.7336 10.3505 52.0188 12.288C51.491 12.9259 50.9497 13.5831 50.395 14.2598C49.873 14.9305 49.3347 15.6042 48.78 16.2808C49.2568 17.4139 49.8066 18.4828 50.4294 19.4877C51.0851 20.4867 51.7378 21.2829 52.3876 21.8763C52.8258 22.2372 53.2655 22.5131 53.7067 22.704C54.1807 22.889 54.6801 22.9338 55.2048 22.8385C55.828 22.7254 56.2514 22.4453 56.4751 21.9981C56.5288 21.9206 56.5944 21.9087 56.6719 21.9624C56.7435 21.9833 56.7524 22.0325 56.6987 22.11C56.5287 22.4796 56.2618 22.7822 55.898 23.0176C55.567 23.2471 55.2211 23.3946 54.8603 23.4601C53.5812 23.6923 52.4021 23.6354 51.3229 23.2893C50.2706 22.9044 49.3256 22.3645 48.488 21.6696C47.6772 20.936 46.9842 20.1979 46.409 19.4554C44.7269 21.7596 43.2431 23.9432 41.9576 26.006C40.6452 28.1076 39.7012 29.7188 39.1255 30.8397C38.9823 31.1706 38.7795 31.3598 38.5172 31.4075Z"/>
<path d="M61.4428 22.824C60.1637 23.0562 59.1396 22.9203 58.3706 22.4162C57.6283 21.8734 57.1649 21.0937 56.9803 20.077C56.8672 19.4538 56.839 18.8322 56.8958 18.2121C56.9526 17.5919 57.0377 17.0344 57.1511 16.5395C56.9632 16.8108 56.7723 17.0657 56.5785 17.3041C56.4115 17.5038 56.2713 17.6648 56.158 17.787C56.0447 17.9092 55.9388 17.9793 55.8404 17.9971C55.7092 18.0209 55.6287 17.9509 55.599 17.7869C55.5573 17.5573 55.6736 17.2651 55.948 16.9104C56.9232 15.7509 57.6733 14.7508 58.1982 13.9102C58.7172 13.0368 59.2809 12.223 59.8893 11.4688C60.9123 10.199 62.0589 9.14384 63.3292 8.30339C64.5995 7.46295 65.9234 6.91768 67.3008 6.66758C68.7439 6.40557 69.9379 6.5445 70.8829 7.08438C71.8279 7.62425 72.4225 8.56653 72.6666 9.91121C72.8036 10.6655 72.7318 11.5764 72.4513 12.6436C72.2035 13.705 71.6994 14.8467 70.9388 16.0689C70.6227 16.5667 70.2573 17.0735 69.8428 17.5892C69.4223 18.0721 69.0495 18.4446 68.7245 18.7069C70.3018 18.2512 71.7092 17.4197 72.9468 16.2125C74.1784 14.9726 75.2654 13.7758 76.2079 12.6222C76.354 12.494 76.4598 12.424 76.5254 12.4121C76.6894 12.3823 76.7863 12.4494 76.8161 12.6134C76.8399 12.7446 76.7847 12.9071 76.6505 13.1008C75.4844 14.7016 74.1647 16.11 72.6916 17.326C71.2513 18.5361 69.5442 19.3034 67.5704 19.6279C66.5357 20.4595 65.4935 21.1569 64.4439 21.7201C63.4271 22.2774 62.4267 22.6453 61.4428 22.824ZM63.4065 21.0445C63.8657 20.9612 64.3427 20.7899 64.8377 20.5306C65.3327 20.2713 65.8188 19.9629 66.2959 19.6052C66.0991 19.6409 65.8844 19.5783 65.6519 19.4172C65.4522 19.2502 65.3226 19.0027 65.263 18.6748C65.1439 18.0188 65.2679 17.3018 65.6348 16.5238C66.0017 15.7457 66.5012 15.0452 67.1335 14.4222C67.7657 13.7993 68.4262 13.4253 69.1149 13.3002C69.5085 13.2288 69.8901 13.278 70.2597 13.4481C70.6562 13.5794 70.9036 13.8224 71.0019 14.1772C71.4463 13.4528 71.7014 12.712 71.7672 11.9548C71.8658 11.1915 71.8585 10.4984 71.7454 9.8752C71.5905 9.02248 71.1956 8.43355 70.5607 8.10842C69.9526 7.74453 69.1893 7.64595 68.271 7.81269C67.3855 7.97346 66.4581 8.46368 65.489 9.28333C64.5526 10.097 63.6982 11.0822 62.9257 12.2388C62.186 13.3894 61.6088 14.5953 61.1941 15.8563C60.8122 17.1114 60.7165 18.2637 60.907 19.3132C61.1631 20.7235 61.9962 21.3006 63.4065 21.0445Z"/>
</mask>
<path d="M4.83924 37.5221C4.70806 37.5459 4.61713 37.5116 4.56647 37.4192C4.48301 37.3327 4.49497 37.212 4.60234 37.0569C5.3749 35.5277 6.40545 33.6466 7.69398 31.4139C8.94972 29.1871 10.3829 26.9111 11.9934 24.586C11.2692 23.3962 10.791 22.1618 10.5588 20.8827C10.3087 19.5052 10.3805 18.4081 10.7742 17.5913C10.9025 17.3647 11.2156 17.0368 11.7136 16.6076C12.2116 16.1784 12.6858 15.8044 13.1361 15.4855C13.5595 15.2053 13.886 15.0444 14.1156 15.0027C14.3124 14.967 14.3526 15.0952 14.2362 15.3874C13.8663 16.3354 13.8183 17.5637 14.0922 19.0724C14.2113 19.7283 14.3826 20.3917 14.606 21.0626C15.9511 19.3277 17.3557 17.7345 18.8199 16.2829C20.2842 14.8313 21.7603 13.6317 23.2483 12.684C24.7303 11.7034 26.1988 11.115 27.6537 10.9186C27.7193 10.9067 27.7417 10.9365 27.7208 11.008C27.7327 11.0736 27.6731 11.1183 27.5419 11.1421C26.3612 11.3565 24.9612 12.1358 23.342 13.48C21.7227 14.8242 20.0557 16.4651 18.3409 18.4026C17.813 19.0405 17.2717 19.6978 16.717 20.3744C16.1951 21.0451 15.6568 21.7188 15.1021 22.3954C15.5788 23.5285 16.1286 24.5975 16.7515 25.6024C17.4072 26.6013 18.0599 27.3975 18.7097 27.991C19.1479 28.3518 19.5876 28.6277 20.0288 28.8186C20.5028 29.0036 21.0022 29.0484 21.5269 28.9532C22.1501 28.84 22.5735 28.5599 22.7972 28.1127C22.8509 28.0352 22.9165 28.0233 22.994 28.077C23.0655 28.0979 23.0745 28.1471 23.0208 28.2246C22.8508 28.5942 22.5838 28.8968 22.22 29.1322C21.8891 29.3617 21.5432 29.5092 21.1824 29.5747C19.9033 29.8069 18.7242 29.75 17.645 29.4039C16.5926 29.019 15.6477 28.4792 14.8101 27.7843C13.9993 27.0506 13.3063 26.3126 12.7311 25.57C11.049 27.8743 9.56516 30.0578 8.27966 32.1206C6.96731 34.2222 6.02329 35.8334 5.4476 36.9543C5.30441 37.2852 5.10162 37.4745 4.83924 37.5221Z" fill="#FEE5BC"/>
<path d="M27.7649 28.9386C26.4858 29.1708 25.4617 29.0349 24.6926 28.5308C23.9504 27.988 23.487 27.2083 23.3024 26.1916C23.1892 25.5684 23.1611 24.9468 23.2179 24.3267C23.2747 23.7065 23.3598 23.149 23.4732 22.6542C23.2853 22.9254 23.0944 23.1803 22.9006 23.4187C22.7336 23.6185 22.5934 23.7794 22.4801 23.9016C22.3667 24.0238 22.2609 24.0939 22.1625 24.1117C22.0313 24.1356 21.9508 24.0655 21.9211 23.9015C21.8794 23.6719 21.9957 23.3798 22.2701 23.025C23.2453 21.8655 23.9954 20.8654 24.5203 20.0248C25.0393 19.1514 25.603 18.3376 26.2114 17.5834C27.2343 16.3136 28.381 15.2585 29.6513 14.418C30.9216 13.5776 32.2454 13.0323 33.6229 12.7822C35.066 12.5202 36.26 12.6591 37.205 13.199C38.15 13.7389 38.7445 14.6811 38.9887 16.0258C39.1256 16.7802 39.0539 17.691 38.7733 18.7583C38.5256 19.8196 38.0215 20.9613 37.2609 22.1835C36.9448 22.6814 36.5794 23.1881 36.1649 23.7038C35.7444 24.1867 35.3716 24.5593 35.0465 24.8215C36.6238 24.3658 38.0313 23.5343 39.2689 22.3271C40.5005 21.0872 41.5875 19.8904 42.5299 18.7368C42.6761 18.6087 42.7819 18.5386 42.8475 18.5267C43.0115 18.4969 43.1084 18.564 43.1381 18.728C43.162 18.8592 43.1068 19.0217 42.9726 19.2155C41.8064 20.8162 40.4868 22.2246 39.0137 23.4406C37.5733 24.6507 35.8663 25.418 33.8925 25.7425C32.8577 26.5741 31.8156 27.2715 30.766 27.8347C29.7492 28.392 28.7488 28.7599 27.7649 28.9386ZM29.7286 27.1592C30.1878 27.0758 30.6648 26.9045 31.1598 26.6452C31.6548 26.3859 32.1408 26.0775 32.618 25.7198C32.4212 25.7556 32.2065 25.6929 31.974 25.5319C31.7743 25.3648 31.6447 25.1174 31.5851 24.7894C31.466 24.1334 31.5899 23.4164 31.9568 22.6384C32.3237 21.8603 32.8233 21.1598 33.4555 20.5368C34.0877 19.9139 34.7482 19.5399 35.437 19.4148C35.8305 19.3434 36.2121 19.3927 36.5818 19.5627C36.9783 19.694 37.2257 19.937 37.324 20.2918C37.7684 19.5675 38.0235 18.8266 38.0893 18.0694C38.1878 17.3062 38.1806 16.613 38.0674 15.9898C37.9126 15.1371 37.5177 14.5482 36.8828 14.223C36.2746 13.8592 35.5114 13.7606 34.5931 13.9273C33.7076 14.0881 32.7802 14.5783 31.8111 15.3979C30.8747 16.2116 30.0203 17.1968 29.2478 18.3534C28.5081 19.504 27.9309 20.7099 27.5162 21.9709C27.1342 23.226 27.0385 24.3783 27.2291 25.4278C27.4851 26.8381 28.3183 27.4152 29.7286 27.1592Z" fill="#FEE5BC"/>
<path d="M38.5172 31.4075C38.386 31.4313 38.2951 31.397 38.2444 31.3046C38.1609 31.2181 38.1729 31.0973 38.2803 30.9423C39.0528 29.413 40.0834 27.532 41.3719 25.2993C42.6276 23.0724 44.0608 20.7965 45.6713 18.4714C44.9471 17.2816 44.4689 16.0472 44.2367 14.7681C43.9866 13.3906 44.0584 12.2935 44.4522 11.4766C44.5804 11.2501 44.8936 10.9222 45.3916 10.493C45.8896 10.0638 46.3637 9.68976 46.814 9.37086C47.2374 9.09071 47.5639 8.92979 47.7935 8.88811C47.9903 8.85238 48.0305 8.98059 47.9142 9.27274C47.5442 10.2207 47.4962 11.4491 47.7701 12.9577C47.8892 13.6137 48.0605 14.2771 48.2839 14.948C49.629 13.2131 51.0336 11.6199 52.4979 10.1683C53.9621 8.71672 55.4382 7.51706 56.9262 6.56934C58.4082 5.58882 59.8767 5.00035 61.3317 4.80394C61.3973 4.79203 61.4196 4.82185 61.3987 4.8934C61.4106 4.95899 61.351 5.0037 61.2198 5.02752C60.0391 5.24189 58.6391 6.02118 57.0199 7.3654C55.4007 8.70962 53.7336 10.3505 52.0188 12.288C51.491 12.9259 50.9497 13.5831 50.395 14.2598C49.873 14.9305 49.3347 15.6042 48.78 16.2808C49.2568 17.4139 49.8066 18.4828 50.4294 19.4877C51.0851 20.4867 51.7378 21.2829 52.3876 21.8763C52.8258 22.2372 53.2655 22.5131 53.7067 22.704C54.1807 22.889 54.6801 22.9338 55.2048 22.8385C55.828 22.7254 56.2514 22.4453 56.4751 21.9981C56.5288 21.9206 56.5944 21.9087 56.6719 21.9624C56.7435 21.9833 56.7524 22.0325 56.6987 22.11C56.5287 22.4796 56.2618 22.7822 55.898 23.0176C55.567 23.2471 55.2211 23.3946 54.8603 23.4601C53.5812 23.6923 52.4021 23.6354 51.3229 23.2893C50.2706 22.9044 49.3256 22.3645 48.488 21.6696C47.6772 20.936 46.9842 20.1979 46.409 19.4554C44.7269 21.7596 43.2431 23.9432 41.9576 26.006C40.6452 28.1076 39.7012 29.7188 39.1255 30.8397C38.9823 31.1706 38.7795 31.3598 38.5172 31.4075Z" fill="#FEE5BC"/>
<path d="M61.4428 22.824C60.1637 23.0562 59.1396 22.9203 58.3706 22.4162C57.6283 21.8734 57.1649 21.0937 56.9803 20.077C56.8672 19.4538 56.839 18.8322 56.8958 18.2121C56.9526 17.5919 57.0377 17.0344 57.1511 16.5395C56.9632 16.8108 56.7723 17.0657 56.5785 17.3041C56.4115 17.5038 56.2713 17.6648 56.158 17.787C56.0447 17.9092 55.9388 17.9793 55.8404 17.9971C55.7092 18.0209 55.6287 17.9509 55.599 17.7869C55.5573 17.5573 55.6736 17.2651 55.948 16.9104C56.9232 15.7509 57.6733 14.7508 58.1982 13.9102C58.7172 13.0368 59.2809 12.223 59.8893 11.4688C60.9123 10.199 62.0589 9.14384 63.3292 8.30339C64.5995 7.46295 65.9234 6.91768 67.3008 6.66758C68.7439 6.40557 69.9379 6.5445 70.8829 7.08438C71.8279 7.62425 72.4225 8.56653 72.6666 9.91121C72.8036 10.6655 72.7318 11.5764 72.4513 12.6436C72.2035 13.705 71.6994 14.8467 70.9388 16.0689C70.6227 16.5667 70.2573 17.0735 69.8428 17.5892C69.4223 18.0721 69.0495 18.4446 68.7245 18.7069C70.3018 18.2512 71.7092 17.4197 72.9468 16.2125C74.1784 14.9726 75.2654 13.7758 76.2079 12.6222C76.354 12.494 76.4598 12.424 76.5254 12.4121C76.6894 12.3823 76.7863 12.4494 76.8161 12.6134C76.8399 12.7446 76.7847 12.9071 76.6505 13.1008C75.4844 14.7016 74.1647 16.11 72.6916 17.326C71.2513 18.5361 69.5442 19.3034 67.5704 19.6279C66.5357 20.4595 65.4935 21.1569 64.4439 21.7201C63.4271 22.2774 62.4267 22.6453 61.4428 22.824ZM63.4065 21.0445C63.8657 20.9612 64.3427 20.7899 64.8377 20.5306C65.3327 20.2713 65.8188 19.9629 66.2959 19.6052C66.0991 19.6409 65.8844 19.5783 65.6519 19.4172C65.4522 19.2502 65.3226 19.0027 65.263 18.6748C65.1439 18.0188 65.2679 17.3018 65.6348 16.5238C66.0017 15.7457 66.5012 15.0452 67.1335 14.4222C67.7657 13.7993 68.4262 13.4253 69.1149 13.3002C69.5085 13.2288 69.8901 13.278 70.2597 13.4481C70.6562 13.5794 70.9036 13.8224 71.0019 14.1772C71.4463 13.4528 71.7014 12.712 71.7672 11.9548C71.8658 11.1915 71.8585 10.4984 71.7454 9.8752C71.5905 9.02248 71.1956 8.43355 70.5607 8.10842C69.9526 7.74453 69.1893 7.64595 68.271 7.81269C67.3855 7.97346 66.4581 8.46368 65.489 9.28333C64.5526 10.097 63.6982 11.0822 62.9257 12.2388C62.186 13.3894 61.6088 14.5953 61.1941 15.8563C60.8122 17.1114 60.7165 18.2637 60.907 19.3132C61.1631 20.7235 61.9962 21.3006 63.4065 21.0445Z" fill="#FEE5BC"/>
<path d="M4.83924 37.5221C4.70806 37.5459 4.61713 37.5116 4.56647 37.4192C4.48301 37.3327 4.49497 37.212 4.60234 37.0569C5.3749 35.5277 6.40545 33.6466 7.69398 31.4139C8.94972 29.1871 10.3829 26.9111 11.9934 24.586C11.2692 23.3962 10.791 22.1618 10.5588 20.8827C10.3087 19.5052 10.3805 18.4081 10.7742 17.5913C10.9025 17.3647 11.2156 17.0368 11.7136 16.6076C12.2116 16.1784 12.6858 15.8044 13.1361 15.4855C13.5595 15.2053 13.886 15.0444 14.1156 15.0027C14.3124 14.967 14.3526 15.0952 14.2362 15.3874C13.8663 16.3354 13.8183 17.5637 14.0922 19.0724C14.2113 19.7283 14.3826 20.3917 14.606 21.0626C15.9511 19.3277 17.3557 17.7345 18.8199 16.2829C20.2842 14.8313 21.7603 13.6317 23.2483 12.684C24.7303 11.7034 26.1988 11.115 27.6537 10.9186C27.7193 10.9067 27.7417 10.9365 27.7208 11.008C27.7327 11.0736 27.6731 11.1183 27.5419 11.1421C26.3612 11.3565 24.9612 12.1358 23.342 13.48C21.7227 14.8242 20.0557 16.4651 18.3409 18.4026C17.813 19.0405 17.2717 19.6978 16.717 20.3744C16.1951 21.0451 15.6568 21.7188 15.1021 22.3954C15.5788 23.5285 16.1286 24.5975 16.7515 25.6024C17.4072 26.6013 18.0599 27.3975 18.7097 27.991C19.1479 28.3518 19.5876 28.6277 20.0288 28.8186C20.5028 29.0036 21.0022 29.0484 21.5269 28.9532C22.1501 28.84 22.5735 28.5599 22.7972 28.1127C22.8509 28.0352 22.9165 28.0233 22.994 28.077C23.0655 28.0979 23.0745 28.1471 23.0208 28.2246C22.8508 28.5942 22.5838 28.8968 22.22 29.1322C21.8891 29.3617 21.5432 29.5092 21.1824 29.5747C19.9033 29.8069 18.7242 29.75 17.645 29.4039C16.5926 29.019 15.6477 28.4792 14.8101 27.7843C13.9993 27.0506 13.3063 26.3126 12.7311 25.57C11.049 27.8743 9.56516 30.0578 8.27966 32.1206C6.96731 34.2222 6.02329 35.8334 5.4476 36.9543C5.30441 37.2852 5.10162 37.4745 4.83924 37.5221Z" stroke="url(#paint0_linear_2021_2)" stroke-width="8" mask="url(#path-1-outside-1_2021_2)"/>
<path d="M27.7649 28.9386C26.4858 29.1708 25.4617 29.0349 24.6926 28.5308C23.9504 27.988 23.487 27.2083 23.3024 26.1916C23.1892 25.5684 23.1611 24.9468 23.2179 24.3267C23.2747 23.7065 23.3598 23.149 23.4732 22.6542C23.2853 22.9254 23.0944 23.1803 22.9006 23.4187C22.7336 23.6185 22.5934 23.7794 22.4801 23.9016C22.3667 24.0238 22.2609 24.0939 22.1625 24.1117C22.0313 24.1356 21.9508 24.0655 21.9211 23.9015C21.8794 23.6719 21.9957 23.3798 22.2701 23.025C23.2453 21.8655 23.9954 20.8654 24.5203 20.0248C25.0393 19.1514 25.603 18.3376 26.2114 17.5834C27.2343 16.3136 28.381 15.2585 29.6513 14.418C30.9216 13.5776 32.2454 13.0323 33.6229 12.7822C35.066 12.5202 36.26 12.6591 37.205 13.199C38.15 13.7389 38.7445 14.6811 38.9887 16.0258C39.1256 16.7802 39.0539 17.691 38.7733 18.7583C38.5256 19.8196 38.0215 20.9613 37.2609 22.1835C36.9448 22.6814 36.5794 23.1881 36.1649 23.7038C35.7444 24.1867 35.3716 24.5593 35.0465 24.8215C36.6238 24.3658 38.0313 23.5343 39.2689 22.3271C40.5005 21.0872 41.5875 19.8904 42.5299 18.7368C42.6761 18.6087 42.7819 18.5386 42.8475 18.5267C43.0115 18.4969 43.1084 18.564 43.1381 18.728C43.162 18.8592 43.1068 19.0217 42.9726 19.2155C41.8064 20.8162 40.4868 22.2246 39.0137 23.4406C37.5733 24.6507 35.8663 25.418 33.8925 25.7425C32.8577 26.5741 31.8156 27.2715 30.766 27.8347C29.7492 28.392 28.7488 28.7599 27.7649 28.9386ZM29.7286 27.1592C30.1878 27.0758 30.6648 26.9045 31.1598 26.6452C31.6548 26.3859 32.1408 26.0775 32.618 25.7198C32.4212 25.7556 32.2065 25.6929 31.974 25.5319C31.7743 25.3648 31.6447 25.1174 31.5851 24.7894C31.466 24.1334 31.5899 23.4164 31.9568 22.6384C32.3237 21.8603 32.8233 21.1598 33.4555 20.5368C34.0877 19.9139 34.7482 19.5399 35.437 19.4148C35.8305 19.3434 36.2121 19.3927 36.5818 19.5627C36.9783 19.694 37.2257 19.937 37.324 20.2918C37.7684 19.5675 38.0235 18.8266 38.0893 18.0694C38.1878 17.3062 38.1806 16.613 38.0674 15.9898C37.9126 15.1371 37.5177 14.5482 36.8828 14.223C36.2746 13.8592 35.5114 13.7606 34.5931 13.9273C33.7076 14.0881 32.7802 14.5783 31.8111 15.3979C30.8747 16.2116 30.0203 17.1968 29.2478 18.3534C28.5081 19.504 27.9309 20.7099 27.5162 21.9709C27.1342 23.226 27.0385 24.3783 27.2291 25.4278C27.4851 26.8381 28.3183 27.4152 29.7286 27.1592Z" stroke="url(#paint1_linear_2021_2)" stroke-width="8" mask="url(#path-1-outside-1_2021_2)"/>
<path d="M38.5172 31.4075C38.386 31.4313 38.2951 31.397 38.2444 31.3046C38.1609 31.2181 38.1729 31.0973 38.2803 30.9423C39.0528 29.413 40.0834 27.532 41.3719 25.2993C42.6276 23.0724 44.0608 20.7965 45.6713 18.4714C44.9471 17.2816 44.4689 16.0472 44.2367 14.7681C43.9866 13.3906 44.0584 12.2935 44.4522 11.4766C44.5804 11.2501 44.8936 10.9222 45.3916 10.493C45.8896 10.0638 46.3637 9.68976 46.814 9.37086C47.2374 9.09071 47.5639 8.92979 47.7935 8.88811C47.9903 8.85238 48.0305 8.98059 47.9142 9.27274C47.5442 10.2207 47.4962 11.4491 47.7701 12.9577C47.8892 13.6137 48.0605 14.2771 48.2839 14.948C49.629 13.2131 51.0336 11.6199 52.4979 10.1683C53.9621 8.71672 55.4382 7.51706 56.9262 6.56934C58.4082 5.58882 59.8767 5.00035 61.3317 4.80394C61.3973 4.79203 61.4196 4.82185 61.3987 4.8934C61.4106 4.95899 61.351 5.0037 61.2198 5.02752C60.0391 5.24189 58.6391 6.02118 57.0199 7.3654C55.4007 8.70962 53.7336 10.3505 52.0188 12.288C51.491 12.9259 50.9497 13.5831 50.395 14.2598C49.873 14.9305 49.3347 15.6042 48.78 16.2808C49.2568 17.4139 49.8066 18.4828 50.4294 19.4877C51.0851 20.4867 51.7378 21.2829 52.3876 21.8763C52.8258 22.2372 53.2655 22.5131 53.7067 22.704C54.1807 22.889 54.6801 22.9338 55.2048 22.8385C55.828 22.7254 56.2514 22.4453 56.4751 21.9981C56.5288 21.9206 56.5944 21.9087 56.6719 21.9624C56.7435 21.9833 56.7524 22.0325 56.6987 22.11C56.5287 22.4796 56.2618 22.7822 55.898 23.0176C55.567 23.2471 55.2211 23.3946 54.8603 23.4601C53.5812 23.6923 52.4021 23.6354 51.3229 23.2893C50.2706 22.9044 49.3256 22.3645 48.488 21.6696C47.6772 20.936 46.9842 20.1979 46.409 19.4554C44.7269 21.7596 43.2431 23.9432 41.9576 26.006C40.6452 28.1076 39.7012 29.7188 39.1255 30.8397C38.9823 31.1706 38.7795 31.3598 38.5172 31.4075Z" stroke="url(#paint2_linear_2021_2)" stroke-width="8" mask="url(#path-1-outside-1_2021_2)"/>
<path d="M61.4428 22.824C60.1637 23.0562 59.1396 22.9203 58.3706 22.4162C57.6283 21.8734 57.1649 21.0937 56.9803 20.077C56.8672 19.4538 56.839 18.8322 56.8958 18.2121C56.9526 17.5919 57.0377 17.0344 57.1511 16.5395C56.9632 16.8108 56.7723 17.0657 56.5785 17.3041C56.4115 17.5038 56.2713 17.6648 56.158 17.787C56.0447 17.9092 55.9388 17.9793 55.8404 17.9971C55.7092 18.0209 55.6287 17.9509 55.599 17.7869C55.5573 17.5573 55.6736 17.2651 55.948 16.9104C56.9232 15.7509 57.6733 14.7508 58.1982 13.9102C58.7172 13.0368 59.2809 12.223 59.8893 11.4688C60.9123 10.199 62.0589 9.14384 63.3292 8.30339C64.5995 7.46295 65.9234 6.91768 67.3008 6.66758C68.7439 6.40557 69.9379 6.5445 70.8829 7.08438C71.8279 7.62425 72.4225 8.56653 72.6666 9.91121C72.8036 10.6655 72.7318 11.5764 72.4513 12.6436C72.2035 13.705 71.6994 14.8467 70.9388 16.0689C70.6227 16.5667 70.2573 17.0735 69.8428 17.5892C69.4223 18.0721 69.0495 18.4446 68.7245 18.7069C70.3018 18.2512 71.7092 17.4197 72.9468 16.2125C74.1784 14.9726 75.2654 13.7758 76.2079 12.6222C76.354 12.494 76.4598 12.424 76.5254 12.4121C76.6894 12.3823 76.7863 12.4494 76.8161 12.6134C76.8399 12.7446 76.7847 12.9071 76.6505 13.1008C75.4844 14.7016 74.1647 16.11 72.6916 17.326C71.2513 18.5361 69.5442 19.3034 67.5704 19.6279C66.5357 20.4595 65.4935 21.1569 64.4439 21.7201C63.4271 22.2774 62.4267 22.6453 61.4428 22.824ZM63.4065 21.0445C63.8657 20.9612 64.3427 20.7899 64.8377 20.5306C65.3327 20.2713 65.8188 19.9629 66.2959 19.6052C66.0991 19.6409 65.8844 19.5783 65.6519 19.4172C65.4522 19.2502 65.3226 19.0027 65.263 18.6748C65.1439 18.0188 65.2679 17.3018 65.6348 16.5238C66.0017 15.7457 66.5012 15.0452 67.1335 14.4222C67.7657 13.7993 68.4262 13.4253 69.1149 13.3002C69.5085 13.2288 69.8901 13.278 70.2597 13.4481C70.6562 13.5794 70.9036 13.8224 71.0019 14.1772C71.4463 13.4528 71.7014 12.712 71.7672 11.9548C71.8658 11.1915 71.8585 10.4984 71.7454 9.8752C71.5905 9.02248 71.1956 8.43355 70.5607 8.10842C69.9526 7.74453 69.1893 7.64595 68.271 7.81269C67.3855 7.97346 66.4581 8.46368 65.489 9.28333C64.5526 10.097 63.6982 11.0822 62.9257 12.2388C62.186 13.3894 61.6088 14.5953 61.1941 15.8563C60.8122 17.1114 60.7165 18.2637 60.907 19.3132C61.1631 20.7235 61.9962 21.3006 63.4065 21.0445Z" stroke="url(#paint3_linear_2021_2)" stroke-width="8" mask="url(#path-1-outside-1_2021_2)"/>
<defs>
<linearGradient id="paint0_linear_2021_2" x1="42.5" y1="6" x2="45.7263" y2="37.416" gradientUnits="userSpaceOnUse">
<stop stop-color="#040504"/>
<stop offset="1" stop-color="#080908"/>
</linearGradient>
<linearGradient id="paint1_linear_2021_2" x1="42.5" y1="6" x2="45.7263" y2="37.416" gradientUnits="userSpaceOnUse">
<stop stop-color="#040504"/>
<stop offset="1" stop-color="#080908"/>
</linearGradient>
<linearGradient id="paint2_linear_2021_2" x1="42.5" y1="6" x2="45.7263" y2="37.416" gradientUnits="userSpaceOnUse">
<stop stop-color="#040504"/>
<stop offset="1" stop-color="#080908"/>
</linearGradient>
<linearGradient id="paint3_linear_2021_2" x1="42.5" y1="6" x2="45.7263" y2="37.416" gradientUnits="userSpaceOnUse">
<stop stop-color="#040504"/>
<stop offset="1" stop-color="#080908"/>
</linearGradient>
</defs>
</svg>
