<svg width="17" height="25" viewBox="0 0 17 25" fill="none" xmlns="http://www.w3.org/2000/svg">
<path d="M3.22442 7.45014C2.6126 6.84149 2.19519 6.06493 2.02508 5.21885C1.85497 4.37277 1.9398 3.49524 2.26883 2.69741C2.59786 1.89959 3.15628 1.21737 3.87336 0.737176C4.59044 0.256984 5.43391 0.000425184 6.29692 5.28022e-07C7.15993 -0.000424128 8.00365 0.255304 8.7212 0.734791C9.43876 1.21428 9.99785 1.89595 10.3277 2.69345C10.6575 3.49095 10.7432 4.3684 10.5739 5.21465C10.4046 6.06089 9.98798 6.83786 9.37676 7.44712C9.34041 7.48332 9.2973 7.51201 9.24986 7.53155C9.20243 7.55109 9.15161 7.56109 9.10032 7.56099C9.04902 7.56089 8.99824 7.55069 8.95088 7.53097C8.90353 7.51124 8.86052 7.48239 8.82432 7.44604C8.78811 7.4097 8.75942 7.36658 8.73988 7.31915C8.72035 7.27171 8.71034 7.2209 8.71044 7.1696C8.71054 7.1183 8.72074 7.06752 8.74047 7.02017C8.76019 6.97281 8.78905 6.9298 8.82539 6.8936C9.32696 6.39349 9.66883 5.75578 9.80769 5.06123C9.94654 4.36668 9.87614 3.64654 9.60541 2.99203C9.33467 2.33752 8.87577 1.77809 8.28684 1.38458C7.69791 0.991083 7.00544 0.78122 6.29715 0.781576C5.58885 0.781932 4.8966 0.992491 4.30806 1.38658C3.71953 1.78068 3.26119 2.34057 2.99111 2.99536C2.72103 3.65014 2.65136 4.37034 2.79091 5.06475C2.93047 5.75917 3.27297 6.39654 3.77505 6.89614C3.81175 6.93224 3.84094 6.97523 3.86097 7.02265C3.88099 7.07007 3.89145 7.12097 3.89174 7.17245C3.89202 7.22392 3.88213 7.27494 3.86263 7.32258C3.84314 7.37022 3.81442 7.41353 3.77812 7.45003C3.74183 7.48653 3.69868 7.5155 3.65116 7.53528C3.60363 7.55505 3.55267 7.56523 3.50119 7.56524C3.44972 7.56525 3.39875 7.55509 3.35122 7.53533C3.30369 7.51558 3.26053 7.48663 3.22422 7.45014H3.22442ZM15.1723 11.2545C14.9169 11.1064 14.6271 11.0279 14.3319 11.0269C14.0367 11.0258 13.7464 11.1023 13.49 11.2486C13.4685 11.261 13.448 11.2746 13.4272 11.2877C13.3575 10.2459 12.5213 9.70078 11.6938 9.70034H11.6923C11.1991 9.70034 10.703 9.89394 10.3675 10.2707C10.0329 9.8583 9.51353 9.64604 8.99766 9.64575H8.99619C8.65818 9.64475 8.3264 9.73669 8.03711 9.91152L8.03984 4.36132C8.03978 3.90074 7.85707 3.45898 7.53179 3.1329C7.2065 2.80682 6.76517 2.62305 6.30459 2.62187H6.30127C5.84141 2.62354 5.40086 2.80693 5.07564 3.13207C4.75043 3.4572 4.56693 3.89771 4.56514 4.35757L4.55903 13.5283L3.5937 12.2575C3.04942 11.5394 2.20986 11.1563 1.40313 11.258C0.798585 11.334 0.314259 11.6725 0.107716 12.1634C-0.0286119 12.4873 -0.155272 13.1654 0.528322 14.0666C1.95601 15.948 2.43726 17.3176 2.86182 18.5259C3.20762 19.5101 3.50635 20.36 4.23389 21.1919C4.87788 21.9295 5.18726 22.7604 5.17974 23.7319L5.1728 24.6067C5.17239 24.658 5.18208 24.7089 5.20133 24.7564C5.22059 24.804 5.24903 24.8473 5.28502 24.8839C5.32101 24.9205 5.36386 24.9496 5.41111 24.9696C5.45836 24.9896 5.50909 25.0001 5.5604 25.0005H13.0753C13.1789 24.9997 13.2779 24.9577 13.3506 24.8839C13.4232 24.8101 13.4636 24.7104 13.4628 24.6068L13.4559 23.731C13.4483 22.7571 13.7581 21.9255 14.4028 21.1885C15.4419 20.0016 16.014 18.4773 16.0123 16.8998L16.0165 12.839C16.0175 12.1432 15.7098 11.5657 15.1723 11.2545Z" fill="#FFF2F4" fill-opacity="0.1"/>
</svg>
