<svg width="15" height="11" viewBox="0 0 15 11" fill="none" xmlns="http://www.w3.org/2000/svg">
<path d="M6.86925 6.6334L0.3957 1.9249L0.375 1.9354V9.0604C0.375 9.24754 0.411859 9.43284 0.483472 9.60573C0.555085 9.77862 0.660049 9.93571 0.792373 10.068C0.924696 10.2004 1.08179 10.3053 1.25468 10.3769C1.42757 10.4485 1.61287 10.4854 1.8 10.4854H13.2C13.3871 10.4854 13.5724 10.4485 13.7453 10.3769C13.9182 10.3053 14.0753 10.2004 14.2076 10.068C14.34 9.93571 14.4449 9.77862 14.5165 9.60573C14.5881 9.43284 14.625 9.24754 14.625 9.0604V1.91845L14.6213 1.9165L8.13075 6.63355C7.94743 6.76682 7.72661 6.83859 7.49998 6.83856C7.27334 6.83854 7.05253 6.76671 6.86925 6.6334Z" fill="#454747" />
<path d="M8.13224 4.874L13.8816 0.692904C13.6801 0.582804 13.4484 0.514404 13.2013 0.514404H1.80134C1.55429 0.514404 1.32629 0.582804 1.12109 0.692904L6.87059 4.874C7.05389 5.00729 7.27471 5.07909 7.50134 5.07909C7.72798 5.07909 7.94894 5.00729 8.13224 4.874Z" fill="#454747"/>
</svg>
